<?xml version="1.0" encoding="UTF-8"?>
<svg id="Layer_1" data-name="Layer 1" xmlns="http://www.w3.org/2000/svg" viewBox="0 0 449.56 449.56">
  <path d="M448.92,224.58c-.4,5.96.54,12.53,0,18.4-3.11,33.7-27.7,50.78-60.45,43.39-4.57-1.03-8.51-3.29-13.13-3.94,8.95,42.88,5.14,89.11-33.01,116.38-42.38,30.29-129.62,31.27-179.14,21.79-65.05-12.45-98.43-48.49-92.69-116.7.6-7.13,2.03-14.47,3.49-21.47-17.6,6.04-35.47,9.6-52.29-.72-41.92-25.71-11.48-107,3.96-141.85,2.88-6.51,6.08-14.05,9.64-20.15,21.95-37.65,66.73-49.58,107.94-48.09,42.32-41.12,120.56-41.19,162.85,0,34-1.33,73.67,7.08,97.3,33.32,20.9,23.21,41.91,87.1,44.72,118.25l.81,1.39ZM235.18,404.23c45.68-2.09,108.45-8.31,120.63-62.04,3.54-15.61,2.39-34.52,0-50.31-4.1-27.16-10.41-56.95-15.79-84.11-13.87-70.08-34.03-150.33-122.85-145.35-63.49,3.56-87.31,57.22-100.71,111.33-9.03,36.45-17.28,80.92-22.95,118.13-2.81,18.47-3.9,40.64,2.34,58.5,16.2,46.36,76.36,51.9,118.3,53.86v-43.38c-17.43-5.96-31.7-21.21-32.42-40.35-.42-10.95,7.13-21.26,18.18-22.98,9.93-1.54,35.7-1.07,46.25-.25,28.6,2.24,24.47,35.33,9.19,51.33-5.82,6.09-12.77,8.76-20.17,12.24v43.38ZM124.8,93.13c-28.46,3.04-57.24,12.54-71.97,38.85-14.95,26.7-36.17,86.68-29.38,116.44,6.43,28.17,42.92,20.02,56.15,2.36,9.33-44.51,14.15-90.92,32.79-132.83,3.3-7.42,8.43-14.72,11.58-21.71.47-1.05,1.17-1.76.83-3.11ZM324.54,93.13c-.34,1.35.36,2.06.83,3.11,3.15,7,8.28,14.29,11.58,21.71,18.64,41.9,23.46,88.31,32.79,132.83,12.91,17.4,49.16,25.74,55.98-1.65,7.38-29.64-13.77-87.82-28-114.85-14.77-28.07-43.21-37.97-73.18-41.15ZM245.69,319.22h-42.05c.96,27.6,41.07,27.64,42.05,0Z"/>
  <path d="M165.77,169.6c18.94-2.6,37.73,11.1,37.8,30.99.03,8.88-10.56,14.65-17.74,8.96-6.26-4.96-1.3-12.43-9.04-17.25-3.77-2.35-5.93-2.59-9.98-.64-9.37,4.54-3.12,14.51-11.73,18.92-7.24,3.71-15.52-1.33-15.93-9.36-.74-14.54,12.31-29.67,26.63-31.63Z"/>
  <path d="M272.64,169.6c19.16-2.63,38.52,11.64,37.41,31.78-.5,9.07-10.89,13.93-17.87,7.81-5.61-4.92-1.05-12.86-9.08-17.21-4-2.17-5.96-2.19-9.99,0-8.13,4.43-3.54,11.3-8.67,16.74-6.67,7.07-18.69,1.27-18.66-8.13.04-14.44,12.47-29.02,26.86-30.99Z"/>
</svg>