<svg width="25" height="25" viewBox="0 0 25 25" fill="none" xmlns="http://www.w3.org/2000/svg">
<path d="M17.5933 2.05103H7.59326C4.83184 2.05103 2.59326 4.2896 2.59326 7.05103V17.051C2.59326 19.8124 4.83184 22.051 7.59326 22.051H17.5933C20.3547 22.051 22.5933 19.8124 22.5933 17.051V7.05103C22.5933 4.2896 20.3547 2.05103 17.5933 2.05103Z" stroke="black" stroke-width="2" stroke-linecap="round" stroke-linejoin="round"/>
<path d="M16.593 11.4213C16.7164 12.2536 16.5742 13.1035 16.1867 13.8503C15.7992 14.5971 15.1861 15.2027 14.4346 15.581C13.6831 15.9593 12.8314 16.0909 12.0008 15.9573C11.1701 15.8236 10.4027 15.4314 9.80781 14.8365C9.21289 14.2416 8.8207 13.4742 8.68704 12.6435C8.55337 11.8129 8.68503 10.9612 9.0633 10.2097C9.44156 9.45818 10.0472 8.84507 10.794 8.45757C11.5408 8.07007 12.3907 7.92792 13.223 8.05133C14.0719 8.17721 14.8578 8.57279 15.4647 9.17963C16.0715 9.78648 16.4671 10.5724 16.593 11.4213Z" stroke="black" stroke-width="2" stroke-linecap="round" stroke-linejoin="round"/>
<path d="M18.0933 6.55103H18.1033" stroke="black" stroke-width="2" stroke-linecap="round" stroke-linejoin="round"/>
</svg>
