<svg width="111" height="113" viewBox="0 0 111 113" fill="none" xmlns="http://www.w3.org/2000/svg">
<path d="M73.0333 86.1827C74.6029 92.9524 75.2265 96.4728 74.1492 99.5377C72.0217 105.59 66.4946 106.945 60.4385 104.816C57.769 103.878 56.047 103.269 52.4883 99.4721C52.4883 99.4721 50.5741 95.898 43.8772 93.842C37.3045 91.2355 33.5625 92.8561 33.5625 92.8561C28.4115 93.5892 26.7583 92.9812 24.0922 92.044C18.0361 89.9153 14.5677 85.4025 16.6964 79.3464C17.7737 76.2816 20.467 73.9309 25.9266 69.6282C25.9266 69.6282 36.4448 60.9337 44.0235 57.7681C49.4979 55.4856 55.556 57.6305 55.556 57.6305L57.4264 58.2879C57.4264 58.2879 63.7606 60.4952 66.3415 65.6131C70.0285 72.9501 73.0327 86.1844 73.0333 86.1827ZM44.2875 45.3827C50.6191 47.6083 58.5626 41.4139 62.0303 31.5486C65.498 21.6833 63.1775 11.881 56.8459 9.65539C50.5143 7.42978 42.5708 13.6242 39.1031 23.4895C35.6353 33.3548 37.9559 43.1571 44.2875 45.3827ZM27.22 58.8217C32.6438 58.3076 36.3934 51.0427 35.5929 42.5938C34.7924 34.1448 29.7477 27.711 24.3245 28.2234C18.9012 28.7358 15.1527 36.003 15.9515 44.4513C16.7521 52.9003 21.7973 59.3324 27.22 58.8217ZM70.9401 54.7513C77.2717 56.9769 85.2169 50.7831 88.6846 40.9178C92.1524 31.0525 89.8301 21.2496 83.4985 19.024C77.1669 16.7984 69.2234 22.9928 65.7557 32.8581C62.288 42.7234 64.6085 52.5257 70.9401 54.7513ZM97.2514 53.8559C93.3405 50.0605 85.3814 51.9234 79.4698 58.0149C73.5582 64.1064 71.9374 72.1195 75.8484 75.9149C79.7599 79.7086 87.719 77.8457 93.63 71.7559C99.541 65.6661 101.162 57.6513 97.2514 53.8559Z" fill="#F3A967"/>
</svg>
