<svg width="25" height="25" viewBox="0 0 25 25" fill="none" xmlns="http://www.w3.org/2000/svg">
<path d="M22.9438 17.3127V20.3127C22.9449 20.5912 22.8879 20.8668 22.7763 21.122C22.6647 21.3772 22.5011 21.6063 22.2959 21.7945C22.0906 21.9828 21.8484 22.1262 21.5845 22.2154C21.3207 22.3046 21.0412 22.3377 20.7638 22.3127C17.6866 21.9783 14.7308 20.9268 12.1338 19.2427C9.71761 17.7073 7.66912 15.6588 6.13378 13.2427C4.44376 10.6339 3.39202 7.66367 3.06378 4.57267C3.03879 4.29614 3.07166 4.01744 3.16028 3.7543C3.24891 3.49116 3.39135 3.24936 3.57855 3.0443C3.76574 2.83923 3.99359 2.67538 4.24757 2.5632C4.50156 2.45101 4.77612 2.39294 5.05378 2.39268H8.05378C8.53909 2.3879 9.00957 2.55975 9.37754 2.87621C9.74551 3.19266 9.98586 3.63212 10.0538 4.11268C10.1804 5.07274 10.4152 6.0154 10.7538 6.92268C10.8883 7.2806 10.9174 7.66959 10.8377 8.04356C10.7579 8.41752 10.5726 8.76079 10.3038 9.03268L9.03378 10.3027C10.4573 12.8062 12.5302 14.8791 15.0338 16.3027L16.3038 15.0327C16.5757 14.7638 16.9189 14.5785 17.2929 14.4988C17.6669 14.419 18.0559 14.4481 18.4138 14.5827C19.3211 14.9212 20.2637 15.1561 21.2238 15.2827C21.7095 15.3512 22.1532 15.5959 22.4703 15.9702C22.7874 16.3445 22.9559 16.8223 22.9438 17.3127Z" stroke="black" stroke-width="2" stroke-linecap="round" stroke-linejoin="round"/>
</svg>
