<svg width="32" height="30" viewBox="0 0 32 30" fill="none" xmlns="http://www.w3.org/2000/svg">
<path d="M10.5391 9.05703L1.24728 10.3789L1.08271 10.4117C0.833578 10.4766 0.606461 10.6052 0.424554 10.7844C0.242646 10.9636 0.112465 11.187 0.0473042 11.4317C-0.0178567 11.6764 -0.0156627 11.9336 0.053662 12.1772C0.122987 12.4208 0.256958 12.642 0.441896 12.8182L7.17335 19.2473L5.58588 28.3287L5.56694 28.4859C5.55169 28.7387 5.6052 28.9909 5.72198 29.2168C5.83876 29.4427 6.01462 29.634 6.23155 29.7713C6.44848 29.9085 6.69869 29.9867 6.95656 29.9979C7.21443 30.0091 7.47069 29.9528 7.6991 29.8348L16.0093 25.5478L24.3005 29.8348L24.4462 29.9006C24.6866 29.9935 24.9478 30.022 25.2031 29.9831C25.4585 29.9443 25.6986 29.8395 25.8991 29.6795C26.0995 29.5195 26.2529 29.31 26.3436 29.0727C26.4343 28.8353 26.459 28.5785 26.4152 28.3287L24.8263 19.2473L31.5606 12.8168L31.6742 12.6953C31.8365 12.4992 31.9429 12.2644 31.9826 12.0148C32.0223 11.7652 31.9938 11.5097 31.9001 11.2745C31.8064 11.0392 31.6508 10.8325 31.4492 10.6754C31.2476 10.5183 31.0071 10.4165 30.7524 10.3803L21.4606 9.05703L17.3069 0.797344C17.1867 0.558034 17.0007 0.356516 16.7698 0.2156C16.5389 0.0746849 16.2724 0 16.0005 0C15.7286 0 15.4622 0.0746849 15.2313 0.2156C15.0004 0.356516 14.8143 0.558034 14.6942 0.797344L10.5391 9.05703Z" fill="black"/>
</svg>
