<svg width="33" height="32" viewBox="0 0 33 32" fill="none" xmlns="http://www.w3.org/2000/svg">
<path fill-rule="evenodd" clip-rule="evenodd" d="M16.5 32C18.6668 32 20.8124 31.5861 22.8143 30.7821C24.8161 29.978 26.6351 28.7994 28.1673 27.3137C29.6994 25.828 30.9148 24.0641 31.744 22.1229C32.5732 20.1817 33 18.1012 33 16C33 13.8989 32.5732 11.8183 31.744 9.87706C30.9148 7.93586 29.6994 6.17203 28.1673 4.68629C26.6351 3.20055 24.8161 2.022 22.8143 1.21793C20.8124 0.413852 18.6668 -3.13096e-08 16.5 0C12.1239 6.32325e-08 7.92709 1.68571 4.83274 4.68629C1.73839 7.68687 0 11.7565 0 16C0 20.2435 1.73839 24.3131 4.83274 27.3137C7.92709 30.3143 12.1239 32 16.5 32ZM16.0747 22.4711L25.2413 11.8044L22.4253 9.52889L14.542 18.7004L10.4628 14.7431L7.8705 17.2569L13.3705 22.5902L14.7895 23.9662L16.0747 22.4711Z" fill="black"/>
</svg>
